<svg xmlns="http://www.w3.org/2000/svg" width="132" height="32" fill="none"><path d="M58.187 8.101c-5.92 0-9.507 3.064-9.507 8.095 0 4.925 4.036 7.911 10.77 7.911 2.777 0 4.976-.47 6.967-1.257l.287-3.75c-2.122.656-4.324 1.049-6.316 1.049-3.17 0-5.108-1.044-5.736-3.01H66.73v-1.887c0-4.35-3.381-7.15-8.543-7.15zm63.408.027c-6.026 0-9.617 3.09-9.617 8.042 0 4.899 3.59 7.937 9.617 7.937 6 0 9.586-3.038 9.586-7.937 0-4.952-3.586-8.042-9.586-8.042zm-80.446.104c-2.934 0-5.241 1.363-6.342 4.35V8.674H28.94v14.827h6.154v-8.83c.681-1.31 1.757-1.908 2.989-1.908 1.493 0 2.435.89 2.435 2.54v8.198h6.16v-9.35c0-3.905-1.966-5.92-5.529-5.92zm39.391.182c-2.49 0-4.558 1.26-5.737 4.167V8.675h-6.055v14.827h6.16v-8.881c1.283-.76 2.512-1.1 3.927-1.1.89 0 1.705.107 2.832.422v-5.45a8.423 8.423 0 0 0-1.127-.079zm1.925.261 4.876 14.827h6.785l2.827-9.429 2.936 9.43h7.02l4.876-14.828h-5.372l-2.753 10.243-2.931-10.243h-7.104l-2.852 10.06-2.571-10.06ZM57.822 11.82c1.94 0 2.988 1.076 3.04 2.962H54.6c.053-1.86 1.232-2.962 3.223-2.962zm63.773.417c2.123 0 3.38 1.444 3.38 3.907 0 2.41-1.257 3.822-3.38 3.822-2.148 0-3.405-1.412-3.405-3.822 0-2.463 1.257-3.907 3.405-3.907z" style="fill:#014c31;fill-opacity:1;stroke-width:1"/><path d="M4.809 6.047a3.995 3.995 0 0 0-3.99 3.99 3.989 3.989 0 0 0 2.8 3.806l2.348.73a9.474 9.474 0 0 1 6.232 6.238l.73 2.342a3.989 3.989 0 0 0 3.807 2.8c2.2 0 3.99-1.79 3.99-3.99 0-1.743-1.13-3.289-2.795-3.806l-2.347-.73a9.482 9.482 0 0 1-6.238-6.238l-.725-2.342a3.995 3.995 0 0 0-3.812-2.8Zm11.932 0a3.984 3.984 0 1 0 0 7.969 3.984 3.984 0 0 0 0-7.97zM4.804 17.984a3.984 3.984 0 1 0 0 7.97 3.984 3.984 0 0 0 0-7.97z" style="fill:#00d021;fill-opacity:1;stroke-width:1"/></svg>