<svg fill="none" height="32" viewBox="0 0 132 32" width="132" xmlns="http://www.w3.org/2000/svg"><path d="m81.224609 6.4765625c-.991599-.013238-1.962372.3011478-2.763671.8945313-.8419.6479283-1.444545 1.5624304-1.714844 2.5996093h-.195313v-3.2226562h-4.730469v18.7753911h4.888672v-10.753907c-.0143-.721329.165532-1.433094.519532-2.058593.345799-.58973.843906-1.072029 1.441406-1.392579.628999-.343319 1.334829-.515766 2.048828-.503906.3854-.0035.771197.016094 1.154297.058594.3221.03622.639672.098933.951172.189453v-4.4238281c-.2545-.055754-.512085-.0948814-.771485-.1171875-.295599-.043953-.575725-.0449216-.828125-.0449219zm4.351563 0 2.041016 19.0468755h5.232421l5.330079-12.261719h.242187l1.328125 12.261719h5.22656l8.32422-19.0468755h-5.03711l-5.13867 12.9082035h-.16797l-1.04297-12.9082035h-4.947263l-5.291016 12.9824215h-.169922l-.910156-12.9824215zm-26.212891.0019531c-1.612798-.0312849-3.203904.3901479-4.595703 1.21875-1.302099.8011192-2.352044 1.9633008-3.027344 3.3496094-.753699 1.560238-1.124478 3.282003-1.080078 5.019531-.0416 1.736449.325667 3.458986 1.072266 5.021485.676999 1.380498 1.746814 2.522144 3.070312 3.277343 1.463399.803 3.108986 1.200697 4.771485 1.154297 1.324798.0272 2.64176-.204341 3.880859-.68164 1.063299-.4047 2.016392-1.063776 2.775391-1.921875.708499-.8315 1.193156-1.834611 1.410156-2.91211l-4.431641-.357422c-.160999.4433-.416447.844482-.748046 1.175782-.3456.334599-.757032.590153-1.207032.751953-.511999.1725-1.048491.258253-1.58789.251953-.787.0208-1.565454-.174907-2.251954-.566406-.639499-.3739-1.156281-.93011-1.488281-1.59961-.362999-.754499-.548468-1.584029-.542969-2.423828h12.414063v-1.435547c.028-1.403018-.192991-2.798938-.650391-4.123047-.390699-1.082139-1.006941-2.0653329-1.80664-2.8828121-.757899-.7644893-1.669629-1.3513085-2.673828-1.7207031-1.057499-.3959587-2.175636-.5979553-3.302735-.5957032zm-18.724609.0019532c-1.241499-.042924-2.466532.2876565-3.519531.9511718-.949499.6178134-1.67752 1.5278411-2.074219 2.5937504h-.216797v-3.2734379h-4.699219v18.7714849h4.931641v-10.898438c-.0223-.742179.133631-1.479155.457031-2.146484.2885-.5729.739223-1.045939 1.294922-1.361328.583399-.32998 1.245063-.497845 1.914062-.484376.461-.027559.921063.044791 1.351563.212891.4305.16809.820578.428469 1.142578.761719.646599.773359.974016 1.766152.916016 2.77539v11.140626h4.917969v-11.953126c.045199-1.308328-.22707-2.6085-.792969-3.7871089-.4963-1.014829-1.278348-1.8603992-2.248047-2.4316406-1.026799-.5904994-2.192701-.8910807-3.375-.8710937zm83.214848.0019531c-1.71-.026702-3.39916.3809747-4.91016 1.1855469-1.442.7881192-2.67022 1.9193163-3.57422 3.2968752-.984 1.492528-1.62591 3.186636-1.87891 4.958984-.327 1.673468-.23251 3.403152.27149 5.03125.451 1.381099 1.35641 2.567182 2.5664 3.363281 1.377.8427 2.96908 1.259219 4.58008 1.199219 1.712.0307 3.40397-.373835 4.91797-1.177734 1.448-.790099 2.68638-1.918717 3.60938-3.291016.988-1.485798 1.63272-3.176294 1.88672-4.945312.316-1.674359.20854-3.402189-.31446-5.023438-.454-1.3816585-1.3584-2.5678913-2.5664-3.3691405-1.374-.8577821-2.9709-1.2851776-4.58789-1.2285156zm-64.419926 3.6542971c.701899-.01629 1.394407.161485 2.003906.515625.564299.335319 1.029457.818178 1.347656 1.398437.3356.62397.505941 1.32613.494141 2.03711l-7.882813.029297c.0238-.66473.197313-1.316775.507813-1.902344.3334-.62032.82031-1.140269 1.412109-1.511719.6392-.38771 1.372988-.583936 2.117188-.566406zm64.216796.144531c.65429.027481 1.28102.280272 1.77539.720703.536.5496.88033 1.257622.98633 2.019531.169.959999.17281 1.941505.00781 2.902344-.162 1.026069-.48217 2.021167-.95117 2.947266-.407.820799-.99666 1.535044-1.72266 2.089844-.695.507999-1.53453.775218-2.39453.761718-.375.0232-.75142-.02709-1.10742-.15039s-.68384-.31736-.96484-.56836c-.538-.548699-.88614-1.254779-.99414-2.017578-.16-.951399-.16-1.923571 0-2.875.162-1.035229.48317-2.03844.95117-2.974609.402-.821679.99366-1.535835 1.72265-2.083985.698-.514429 1.54321-.785151 2.40821-.769531.09425-.005382.18973-.005879.2832-.001953z" fill="#fff"/><path d="m6.6902497 8.64791c-.2586-.71235-.75615-1.313005-1.40792-1.699664-.65176-.386659-1.41742-.5354012-2.16654-.4208892-.63023.1173762-1.21016.4228142-1.663466.8761182-.45330299.453305-.75874199 1.033235-.87611809 1.663465-.1224246.7499.0196274 1.51905.4018371 2.17575.38220999.65671.98080699 1.16014 1.69331699 1.4241.6349.27301 1.73326.76823 2.88877 1.26979 2.88396 1.30994 5.1942203 3.62247 6.5013203 6.50767.527 1.1555 1.0222 2.2539 1.2698 2.8888.2588.7135.7573 1.3151 1.4104 1.7019.6532.3867 1.4203.5347 2.1704.4186.6302-.1173 1.2102-.4228 1.6635-.8761s.7587-1.0332.8761-1.6635c.1148-.7499-.0337-1.5165-.4203-2.1694-.3866-.6528-.9874-1.1515-1.7003-1.4114-.6349-.273-1.7332-.7682-2.8887-1.2697-2.8673-1.3187-5.1607303-3.6302-6.4569203-6.50772-.50156-1.17456-1.02218-2.27293-1.29518-2.90782zm-3.01582 16.87554c1.75321 0 3.17447-1.4213 3.17447-3.1745s-1.42126-3.1745-3.17447-3.1745c-1.75322 0-3.17447999 1.4213-3.17447999 3.1745s1.42125999 3.1745 3.17447999 3.1745zm12.6980203-12.69795c1.7532 0 3.1744-1.42126 3.1744-3.17447 0-1.75322-1.4212-3.17448-3.1744-3.17448s-3.1745 1.42126-3.1745 3.17448c0 1.75321 1.4213 3.17447 3.1745 3.17447z" fill="#00c820"/></svg>