<?xml version="1.0" encoding="UTF-8" standalone="no"?>
<svg
   width="32"
   height="32"
   viewBox="0 0 32 32"
   fill="none"
   version="1.1"
   id="svg18"
   sodipodi:docname="nerwo.svg"
   inkscape:version="1.2.2 (b0a8486541, 2022-12-01)"
   xmlns:inkscape="http://www.inkscape.org/namespaces/inkscape"
   xmlns:sodipodi="http://sodipodi.sourceforge.net/DTD/sodipodi-0.dtd"
   xmlns="http://www.w3.org/2000/svg"
   xmlns:svg="http://www.w3.org/2000/svg">
  <defs
     id="defs22" />
  <sodipodi:namedview
     id="namedview20"
     pagecolor="#ffffff"
     bordercolor="#666666"
     borderopacity="1.0"
     inkscape:showpageshadow="2"
     inkscape:pageopacity="0.0"
     inkscape:pagecheckerboard="0"
     inkscape:deskcolor="#d1d1d1"
     showgrid="false"
     inkscape:zoom="5.4923664"
     inkscape:cx="94.676859"
     inkscape:cy="24.124392"
     inkscape:window-width="1920"
     inkscape:window-height="997"
     inkscape:window-x="0"
     inkscape:window-y="0"
     inkscape:window-maximized="1"
     inkscape:current-layer="svg18" />
  <path
     id="path16"
     d="M 11.586726,6.265429 C 11.244326,5.3222385 10.585542,4.5269383 9.7225634,4.0149806 8.8595974,3.5030229 7.8458215,3.30608 6.8539455,3.4577002 6.0194863,3.6131128 5.2516272,4.0175294 4.6514252,4.6177288 4.0512271,5.2179295 3.6468091,5.9857887 3.4913967,6.8202478 c -0.1620969,0.9929087 0.025988,2.0113057 0.5320544,2.8808125 0.506067,0.8695207 1.2986423,1.5360897 2.2420447,1.8855877 0.8406424,0.36148 2.2949315,1.017179 3.8248892,1.681272 3.818521,1.734432 6.877433,4.796348 8.608105,8.616512 0.697777,1.529945 1.353449,2.984287 1.681285,3.824929 0.342665,0.944714 1.002706,1.741265 1.867447,2.253409 0.864872,0.512012 1.880555,0.707973 2.873728,0.55425 0.83442,-0.155312 1.602372,-0.559811 2.202566,-1.160005 0.600194,-0.600194 1.00456,-1.368013 1.160004,-2.202565 0.152002,-0.992909 -0.04462,-2.007929 -0.5565,-2.872405 -0.51188,-0.864343 -1.307372,-1.524649 -2.251291,-1.868771 -0.840642,-0.361467 -2.294852,-1.017139 -3.824797,-1.681152 -3.796463,-1.746031 -6.83309,-4.806584 -8.549316,-8.616579 C 12.637523,8.5603605 11.948193,7.1060583 11.586726,6.265429 Z M 7.5936155,28.609571 c 2.3213463,0 4.2031725,-1.881879 4.2031725,-4.203212 0,-2.321333 -1.8818262,-4.203212 -4.2031725,-4.203212 -2.3213595,0 -4.2031858,1.881879 -4.2031858,4.203212 0,2.321333 1.8818263,4.203212 4.2031858,4.203212 z M 24.40649,11.796789 c 2.321333,0 4.20308,-1.8818277 4.20308,-4.203174 0,-2.3213595 -1.881747,-4.2031858 -4.20308,-4.2031858 -2.321333,0 -4.203212,1.8818263 -4.203212,4.2031858 0,2.3213463 1.881879,4.203174 4.203212,4.203174 z"
     style="fill:#00c820;fill-opacity:1;stroke-width:1" />
</svg>
