<?xml version="1.0" encoding="UTF-8" standalone="no"?>
<svg
   width="132"
   height="32"
   viewBox="0 0 132 32"
   fill="none"
   version="1.1"
   id="svg18"
   sodipodi:docname="nerwo.svg"
   inkscape:version="1.2.2 (b0a8486541, 2022-12-01)"
   xmlns:inkscape="http://www.inkscape.org/namespaces/inkscape"
   xmlns:sodipodi="http://sodipodi.sourceforge.net/DTD/sodipodi-0.dtd"
   xmlns="http://www.w3.org/2000/svg"
   xmlns:svg="http://www.w3.org/2000/svg">
  <defs
     id="defs22" />
  <sodipodi:namedview
     id="namedview20"
     pagecolor="#ffffff"
     bordercolor="#666666"
     borderopacity="1.0"
     inkscape:showpageshadow="2"
     inkscape:pageopacity="0.0"
     inkscape:pagecheckerboard="0"
     inkscape:deskcolor="#d1d1d1"
     showgrid="false"
     inkscape:zoom="7.7673791"
     inkscape:cx="64.758008"
     inkscape:cy="13.196214"
     inkscape:window-width="1920"
     inkscape:window-height="997"
     inkscape:window-x="0"
     inkscape:window-y="0"
     inkscape:window-maximized="1"
     inkscape:current-layer="svg18" />
  <g
     id="g866"
     transform="translate(0.49994971,6.47655)">
    <path
       d="M 43.5137,0.875288 C 42.4869,0.284788 41.3211,-0.016289 40.1388,0.003698 38.8973,-0.039226 37.6714,0.29234 36.6184,0.955856 35.6689,1.57367 34.9421,2.48274 34.5454,3.54865 H 34.3272 V 0.274697 H 29.6284 V 19.0469 h 4.9315 V 8.14831 c -0.0223,-0.74218 0.1349,-1.47869 0.4583,-2.14602 0.2885,-0.5729 0.739,-1.04693 1.2947,-1.36232 0.5834,-0.32998 1.2439,-0.49687 1.9129,-0.4834 0.461,-0.02756 0.9224,0.04518 1.3529,0.21328 0.4305,0.16809 0.82,0.4276 1.142,0.76085 0.6466,0.77336 0.9745,1.76667 0.9165,2.77591 V 19.0469 h 4.9169 V 7.09361 C 46.5993,5.78528 46.3272,4.48556 45.7613,3.30695 45.265,2.29212 44.4834,1.44653 43.5137,0.875288 Z"
       fill="#014c31"
       id="path2" />
    <path
       d="M 64.8404,2.31817 C 64.0825,1.55368 63.1697,0.96629 62.1655,0.596895 61.108,0.200936 59.9896,-6.30524e-4 58.8625,0.00162161 57.2497,-0.0296631 55.6597,0.392257 54.2679,1.22086 c -1.3021,0.80112 -2.3525,1.963 -3.0278,3.34931 -0.7537,1.56024 -1.1242,3.28285 -1.0798,5.02038 -0.0416,1.73645 0.3262,3.45785 1.0728,5.02035 0.677,1.3805 1.7466,2.5224 3.0701,3.2776 1.4634,0.803 3.1086,1.2011 4.7711,1.1547 1.3248,0.0272 2.6426,-0.204 3.8817,-0.6813 1.0633,-0.4047 2.0147,-1.064 2.7737,-1.9221 0.7085,-0.8315 1.1946,-1.8343 1.4116,-2.9118 L 62.709,13.1694 c -0.161,0.4433 -0.4165,0.8449 -0.7481,1.1762 -0.3456,0.3346 -0.7569,0.5912 -1.2069,0.753 -0.512,0.1725 -1.0486,0.2573 -1.588,0.251 -0.787,0.0208 -1.5649,-0.175 -2.2514,-0.5665 -0.6395,-0.3739 -1.1572,-0.9299 -1.4892,-1.5994 -0.363,-0.7545 -0.549,-1.5843 -0.5435,-2.4241 H 67.2965 V 9.32518 C 67.3245,7.92216 67.1046,6.52541 66.6472,5.2013 66.2565,4.11916 65.6401,3.13565 64.8404,2.31817 Z m -9.9443,5.3216 C 54.9199,6.97504 55.0937,6.32477 55.4042,5.7392 55.7376,5.11888 56.224,4.59736 56.8158,4.22591 57.455,3.8382 58.1889,3.6418 58.9331,3.65933 c 0.7019,-0.01629 1.3949,0.16224 2.0044,0.51638 0.5643,0.33532 1.0298,0.81827 1.348,1.39853 0.3356,0.62397 0.5059,1.32586 0.4941,2.03684 z"
       fill="#014c31"
       id="path4" />
    <path
       d="M 80.7237,4.02581e-4 C 79.7321,-0.0128357 78.763,0.300737 77.9617,0.894121 77.1198,1.54205 76.5156,2.45751 76.2453,3.49469 H 76.0506 V 0.271448 H 71.3198 V 19.0469 h 4.8895 V 8.29293 C 76.195,7.5716 76.3745,6.85995 76.7285,6.23445 c 0.3458,-0.58973 0.8448,-1.0713 1.4423,-1.39185 0.629,-0.34332 1.3341,-0.51733 2.0481,-0.50547 0.3854,-0.00346 0.7707,0.01611 1.1538,0.05861 0.3221,0.03622 0.6405,0.09994 0.952,0.19046 V 0.161565 C 82.0702,0.105811 81.8124,0.0666618 81.553,0.0443559 81.2574,4.0258e-4 80.9761,4.02581e-4 80.7237,4.02581e-4 Z"
       fill="#014c31"
       id="path6" />
    <path
       d="m 107.764,0 -5.138,12.9085 h -0.169 L 101.415,0 H 96.4678 L 91.1756,12.9828 H 91.0068 L 90.0966,0 h -5.0207 l 2.0406,19.0469 H 92.35 L 97.679,6.78493 h 0.2422 l 1.3286,12.26197 h 5.2262 L 112.8,0 Z"
       fill="#014c31"
       id="path8" />
    <path
       d="m 130.508,4.60414 c -0.454,-1.38166 -1.358,-2.56907 -2.566,-3.37032 -1.374,-0.857783 -2.971,-1.2854999 -4.588,-1.2288379 -1.71,-0.0267017 -3.399,0.3811449 -4.91,1.1857179 -1.442,0.78812 -2.67,1.9209 -3.574,3.29846 -0.984,1.49253 -1.626,3.18612 -1.879,4.95847 -0.327,1.67347 -0.233,3.40227 0.271,5.03037 0.451,1.3811 1.356,2.567 2.566,3.3631 1.377,0.8427 2.97,1.2601 4.581,1.2001 1.712,0.0307 3.404,-0.3747 4.918,-1.1786 1.448,-0.7901 2.686,-1.9189 3.609,-3.2912 0.988,-1.4858 1.633,-3.1751 1.887,-4.94412 0.316,-1.67436 0.208,-3.40189 -0.315,-5.02314 z m -4.588,4.84349 c -0.162,1.02607 -0.482,2.02027 -0.951,2.94637 -0.407,0.8208 -0.996,1.5363 -1.722,2.0911 -0.695,0.508 -1.535,0.7753 -2.395,0.7618 -0.375,0.0232 -0.751,-0.0283 -1.107,-0.1516 -0.356,-0.1233 -0.684,-0.316 -0.965,-0.567 -0.538,-0.5487 -0.886,-1.2566 -0.994,-2.0194 -0.16,-0.9514 -0.16,-1.923 0,-2.87443 0.162,-1.03523 0.483,-2.03891 0.951,-2.97508 0.402,-0.82168 0.993,-1.53584 1.722,-2.08399 0.698,-0.51443 1.544,-0.78455 2.409,-0.76893 0.754,-0.04306 1.493,0.21527 2.058,0.71862 0.536,0.5496 0.881,1.25741 0.987,2.01932 0.169,0.96 0.172,1.94238 0.007,2.90322 z"
       fill="#014c31"
       id="path10" />
    <path
       id="path16"
       d="M 6.1903,2.17136 C 5.9317,1.45901 5.43415,0.858355 4.78238,0.471696 4.13062,0.085037 3.36496,-0.0637052 2.61584,0.0508068 1.98561,0.168183 1.40568,0.473621 0.952374,0.926925 0.499071,1.38023 0.193632,1.96016 0.0762559,2.59039 -0.0461687,3.34029 0.0958833,4.10944 0.478093,4.76614 0.860303,5.42285 1.4589,5.92628 2.17141,6.19024 c 0.6349,0.27301 1.73326,0.76823 2.88877,1.26979 2.88396,1.30994 5.19422,3.62247 6.50132,6.50767 0.527,1.1555 1.0222,2.2539 1.2698,2.8888 0.2588,0.7135 0.7573,1.3151 1.4104,1.7019 0.6532,0.3867 1.4203,0.5347 2.1704,0.4186 0.6302,-0.1173 1.2102,-0.4228 1.6635,-0.8761 0.4533,-0.4533 0.7587,-1.0332 0.8761,-1.6635 C 19.0665,15.6875 18.918,14.9209 18.5314,14.268 18.1448,13.6152 17.544,13.1165 16.8311,12.8566 16.1962,12.5836 15.0979,12.0884 13.9424,11.5869 11.0751,10.2682 8.78167,7.9567 7.48548,5.07918 6.98392,3.90462 6.4633,2.80625 6.1903,2.17136 Z M 3.17448,19.0469 c 1.75321,0 3.17447,-1.4213 3.17447,-3.1745 0,-1.7532 -1.42126,-3.1745 -3.17447,-3.1745 C 1.42126,12.6979 0,14.1192 0,15.8724 c 0,1.7532 1.42126,3.1745 3.17448,3.1745 z M 15.8725,6.34895 c 1.7532,0 3.1744,-1.42126 3.1744,-3.17447 C 19.0469,1.42126 17.6257,0 15.8725,0 14.1193,0 12.698,1.42126 12.698,3.17448 c 0,1.75321 1.4213,3.17447 3.1745,3.17447 z"
       style="fill:#00c820;fill-opacity:1" />
  </g>
</svg>
