<svg height="250" viewBox="0 0 250 250" width="250" xmlns="http://www.w3.org/2000/svg"><circle cx="125" cy="125" fill="#00c820" r="125"/><path d="m160.38511 143.64391q-18.79472 0-32.89076-5.36992-14.09604-5.53773-22.15092-15.43852-7.887071-10.0686-8.390501-23.157776h34.065431q1.17467 8.390496 8.89393 13.256986 7.88707 4.86649 20.97625 4.86649 12.41794 0 18.79472-3.52401 6.54459-3.69182 6.54459-10.0686 0-3.52401-2.01372-6.208966-1.84591-2.684959-6.37678-4.363059-4.53087-1.6781-12.41794-2.34934l-18.62691-1.6781q-25.33931-2.18153-36.9182-11.7467-11.578891-9.56517-11.578891-25.33931 0-12.75356 7.215831-21.64749 7.21583-9.061739 20.30501-13.760419 13.08918-4.69868 30.87704-4.69868 17.45224 0 30.70923 5.20211 13.4248 5.0343 21.14406 14.431659 7.71926 9.22955 8.55831 21.64749h-33.89762q-1.00686-6.54459-7.55145-10.90765-6.37678-4.53087-19.46596-4.53087-11.41108 0-17.78786 3.52401-6.20897 3.3562-6.20897 9.56517 0 3.18839 1.6781 5.70554 1.6781 2.34934 5.87335 4.02744 4.19525 1.6781 11.57889 2.34934l20.64063 1.6781q17.62005 1.34248 28.19208 5.87335 10.57203 4.36306 15.27071 11.7467 4.86649 7.38364 4.86649 17.955665 0 12.75356-7.38364 22.48654-7.38364 9.73298-20.80844 15.1029-13.4248 5.36992-31.71609 5.36992zm-16.781 11.07546v-23.99683h29.70237v23.99683zm0-126.360925v-27.0174091h29.70237v27.0174091z" fill="#fff" stroke-width=".999997" transform="matrix(.94661321 .32237158 -.32237158 .94661321 0 0)"/></svg>